# xmcd
# 
# Track frame offsets:
#     150
#     16076
#     34628
#     53672
#     70535
#     85475
#     101841
#     116604
#     133801
#     154280
#     171453
#     183927
# 
# Disc length: 2676
# 
# Revision: 1
# Processed by: cddbd v1.5.2PL0 Copyright (c) Steve Scherf et al.
# Submitted via: fre:ac v1.0.31
# 
DISCID=9c0a720c
DTITLE=Iiro Rantala and Ulf Wakenius - Good Stuff
DYEAR=2017
DGENRE=Jazz
TTITLE0=Vienna
TTITLE1=Carmen - Micaela and Don Jose
TTITLE2=Helsinki
TTITLE3=Palma
TTITLE4=Seoul
TTITLE5=Nessun Dorma
TTITLE6=Sir Duke
TTITLE7=Berlin
TTITLE8=What a Wonderful World
TTITLE9=Rome
TTITLE10=Giant Steps
TTITLE11=Love the Stuff - Ain't no mountain enough
EXTD=YEAR: 2017
EXTT0=
EXTT1=
EXTT2=
EXTT3=
EXTT4=
EXTT5=
EXTT6=
EXTT7=
EXTT8=
EXTT9=
EXTT10=
EXTT11=
PLAYORDER=
